<mxfile host="app.diagrams.net" modified="2022-06-28T01:11:48.756Z" agent="5.0 (Windows NT 10.0; Win64; x64) AppleWebKit/537.36 (KHTML, like Gecko) Chrome/101.0.0.0 Safari/537.36" etag="_og_lFqJPRXwu0r2Lx7C" version="20.0.1" type="github">
  <diagram id="C5RBs43oDa-KdzZeNtuy" name="Page-1">
    <mxGraphModel dx="1292" dy="723" grid="1" gridSize="10" guides="1" tooltips="1" connect="1" arrows="1" fold="1" page="1" pageScale="1" pageWidth="827" pageHeight="1169" math="0" shadow="0">
      <root>
        <mxCell id="WIyWlLk6GJQsqaUBKTNV-0" />
        <mxCell id="WIyWlLk6GJQsqaUBKTNV-1" parent="WIyWlLk6GJQsqaUBKTNV-0" />
        <mxCell id="zkfFHV4jXpPFQw0GAbJ--0" value="TableModel" style="swimlane;fontStyle=2;align=center;verticalAlign=top;childLayout=stackLayout;horizontal=1;startSize=26;horizontalStack=0;resizeParent=1;resizeLast=0;collapsible=1;marginBottom=0;rounded=0;shadow=0;strokeWidth=1;" parent="WIyWlLk6GJQsqaUBKTNV-1" vertex="1">
          <mxGeometry x="70" y="50" width="190" height="242" as="geometry">
            <mxRectangle x="230" y="140" width="160" height="26" as="alternateBounds" />
          </mxGeometry>
        </mxCell>
        <mxCell id="zkfFHV4jXpPFQw0GAbJ--1" value="+ TableModel()" style="text;align=left;verticalAlign=top;spacingLeft=4;spacingRight=4;overflow=hidden;rotatable=0;points=[[0,0.5],[1,0.5]];portConstraint=eastwest;" parent="zkfFHV4jXpPFQw0GAbJ--0" vertex="1">
          <mxGeometry y="26" width="190" height="26" as="geometry" />
        </mxCell>
        <mxCell id="zkfFHV4jXpPFQw0GAbJ--2" value="+ TableTemplate* tblTemplate()" style="text;align=left;verticalAlign=top;spacingLeft=4;spacingRight=4;overflow=hidden;rotatable=0;points=[[0,0.5],[1,0.5]];portConstraint=eastwest;rounded=0;shadow=0;html=0;" parent="zkfFHV4jXpPFQw0GAbJ--0" vertex="1">
          <mxGeometry y="52" width="190" height="26" as="geometry" />
        </mxCell>
        <mxCell id="zkfFHV4jXpPFQw0GAbJ--3" value="+ TableAxis*" style="text;align=left;verticalAlign=top;spacingLeft=4;spacingRight=4;overflow=hidden;rotatable=0;points=[[0,0.5],[1,0.5]];portConstraint=eastwest;rounded=0;shadow=0;html=0;" parent="zkfFHV4jXpPFQw0GAbJ--0" vertex="1">
          <mxGeometry y="78" width="190" height="26" as="geometry" />
        </mxCell>
        <mxCell id="RZXt0brPKQYj8_NsuCjM-0" value="+ float findValue()" style="text;align=left;verticalAlign=top;spacingLeft=4;spacingRight=4;overflow=hidden;rotatable=0;points=[[0,0.5],[1,0.5]];portConstraint=eastwest;rounded=0;shadow=0;html=0;" vertex="1" parent="zkfFHV4jXpPFQw0GAbJ--0">
          <mxGeometry y="104" width="190" height="26" as="geometry" />
        </mxCell>
        <mxCell id="RZXt0brPKQYj8_NsuCjM-1" value="+ ..." style="text;align=left;verticalAlign=top;spacingLeft=4;spacingRight=4;overflow=hidden;rotatable=0;points=[[0,0.5],[1,0.5]];portConstraint=eastwest;rounded=0;shadow=0;html=0;" vertex="1" parent="zkfFHV4jXpPFQw0GAbJ--0">
          <mxGeometry y="130" width="190" height="26" as="geometry" />
        </mxCell>
        <mxCell id="zkfFHV4jXpPFQw0GAbJ--4" value="" style="line;html=1;strokeWidth=1;align=left;verticalAlign=middle;spacingTop=-1;spacingLeft=3;spacingRight=3;rotatable=0;labelPosition=right;points=[];portConstraint=eastwest;" parent="zkfFHV4jXpPFQw0GAbJ--0" vertex="1">
          <mxGeometry y="156" width="190" height="8" as="geometry" />
        </mxCell>
        <mxCell id="zkfFHV4jXpPFQw0GAbJ--5" value="# Table *table_" style="text;align=left;verticalAlign=top;spacingLeft=4;spacingRight=4;overflow=hidden;rotatable=0;points=[[0,0.5],[1,0.5]];portConstraint=eastwest;" parent="zkfFHV4jXpPFQw0GAbJ--0" vertex="1">
          <mxGeometry y="164" width="190" height="26" as="geometry" />
        </mxCell>
        <mxCell id="RZXt0brPKQYj8_NsuCjM-3" value="# float scaleFactor()" style="text;align=left;verticalAlign=top;spacingLeft=4;spacingRight=4;overflow=hidden;rotatable=0;points=[[0,0.5],[1,0.5]];portConstraint=eastwest;" vertex="1" parent="zkfFHV4jXpPFQw0GAbJ--0">
          <mxGeometry y="190" width="190" height="26" as="geometry" />
        </mxCell>
        <mxCell id="RZXt0brPKQYj8_NsuCjM-2" value="# ..." style="text;align=left;verticalAlign=top;spacingLeft=4;spacingRight=4;overflow=hidden;rotatable=0;points=[[0,0.5],[1,0.5]];portConstraint=eastwest;" vertex="1" parent="zkfFHV4jXpPFQw0GAbJ--0">
          <mxGeometry y="216" width="190" height="26" as="geometry" />
        </mxCell>
        <mxCell id="zkfFHV4jXpPFQw0GAbJ--13" value="Table0" style="swimlane;fontStyle=0;align=center;verticalAlign=top;childLayout=stackLayout;horizontal=1;startSize=26;horizontalStack=0;resizeParent=1;resizeLast=0;collapsible=1;marginBottom=0;rounded=0;shadow=0;strokeWidth=1;" parent="WIyWlLk6GJQsqaUBKTNV-1" vertex="1">
          <mxGeometry x="280" y="360" width="160" height="210" as="geometry">
            <mxRectangle x="340" y="380" width="170" height="26" as="alternateBounds" />
          </mxGeometry>
        </mxCell>
        <mxCell id="zkfFHV4jXpPFQw0GAbJ--14" value="+ Table0(float value)" style="text;align=left;verticalAlign=top;spacingLeft=4;spacingRight=4;overflow=hidden;rotatable=0;points=[[0,0.5],[1,0.5]];portConstraint=eastwest;" parent="zkfFHV4jXpPFQw0GAbJ--13" vertex="1">
          <mxGeometry y="26" width="160" height="26" as="geometry" />
        </mxCell>
        <mxCell id="RZXt0brPKQYj8_NsuCjM-4" value="&amp;nbsp;+ virtual int order()" style="text;whiteSpace=wrap;html=1;" vertex="1" parent="zkfFHV4jXpPFQw0GAbJ--13">
          <mxGeometry y="52" width="160" height="30" as="geometry" />
        </mxCell>
        <mxCell id="RZXt0brPKQYj8_NsuCjM-5" value="&amp;nbsp;+ virtual float value()" style="text;whiteSpace=wrap;html=1;" vertex="1" parent="zkfFHV4jXpPFQw0GAbJ--13">
          <mxGeometry y="82" width="160" height="30" as="geometry" />
        </mxCell>
        <mxCell id="RZXt0brPKQYj8_NsuCjM-6" value="&amp;nbsp;+ virtual float findvalue()" style="text;whiteSpace=wrap;html=1;" vertex="1" parent="zkfFHV4jXpPFQw0GAbJ--13">
          <mxGeometry y="112" width="160" height="30" as="geometry" />
        </mxCell>
        <mxCell id="RZXt0brPKQYj8_NsuCjM-9" value="&amp;nbsp;+ ..." style="text;whiteSpace=wrap;html=1;" vertex="1" parent="zkfFHV4jXpPFQw0GAbJ--13">
          <mxGeometry y="142" width="160" height="30" as="geometry" />
        </mxCell>
        <mxCell id="RZXt0brPKQYj8_NsuCjM-7" value="" style="line;strokeWidth=1;fillColor=none;align=left;verticalAlign=middle;spacingTop=-1;spacingLeft=3;spacingRight=3;rotatable=0;labelPosition=right;points=[];portConstraint=eastwest;" vertex="1" parent="zkfFHV4jXpPFQw0GAbJ--13">
          <mxGeometry y="172" width="160" height="8" as="geometry" />
        </mxCell>
        <mxCell id="RZXt0brPKQYj8_NsuCjM-8" value="&amp;nbsp;- float value_" style="text;whiteSpace=wrap;html=1;" vertex="1" parent="zkfFHV4jXpPFQw0GAbJ--13">
          <mxGeometry y="180" width="160" height="30" as="geometry" />
        </mxCell>
        <mxCell id="zkfFHV4jXpPFQw0GAbJ--16" value="" style="endArrow=block;endSize=10;endFill=0;shadow=0;strokeWidth=1;rounded=0;edgeStyle=elbowEdgeStyle;elbow=vertical;entryX=0.5;entryY=1;entryDx=0;entryDy=0;" parent="WIyWlLk6GJQsqaUBKTNV-1" source="zkfFHV4jXpPFQw0GAbJ--13" target="zkfFHV4jXpPFQw0GAbJ--17" edge="1">
          <mxGeometry width="160" relative="1" as="geometry">
            <mxPoint x="210" y="373" as="sourcePoint" />
            <mxPoint x="310" y="271" as="targetPoint" />
          </mxGeometry>
        </mxCell>
        <mxCell id="zkfFHV4jXpPFQw0GAbJ--17" value="Table" style="swimlane;fontStyle=0;align=center;verticalAlign=top;childLayout=stackLayout;horizontal=1;startSize=26;horizontalStack=0;resizeParent=1;resizeLast=0;collapsible=1;marginBottom=0;rounded=0;shadow=0;strokeWidth=1;" parent="WIyWlLk6GJQsqaUBKTNV-1" vertex="1">
          <mxGeometry x="400" y="50" width="160" height="160" as="geometry">
            <mxRectangle x="550" y="140" width="160" height="26" as="alternateBounds" />
          </mxGeometry>
        </mxCell>
        <mxCell id="zkfFHV4jXpPFQw0GAbJ--18" value="+ Table()" style="text;align=left;verticalAlign=top;spacingLeft=4;spacingRight=4;overflow=hidden;rotatable=0;points=[[0,0.5],[1,0.5]];portConstraint=eastwest;" parent="zkfFHV4jXpPFQw0GAbJ--17" vertex="1">
          <mxGeometry y="26" width="160" height="26" as="geometry" />
        </mxCell>
        <mxCell id="zkfFHV4jXpPFQw0GAbJ--19" value="+ virtual TableAxis*" style="text;align=left;verticalAlign=top;spacingLeft=4;spacingRight=4;overflow=hidden;rotatable=0;points=[[0,0.5],[1,0.5]];portConstraint=eastwest;rounded=0;shadow=0;html=0;" parent="zkfFHV4jXpPFQw0GAbJ--17" vertex="1">
          <mxGeometry y="52" width="160" height="26" as="geometry" />
        </mxCell>
        <mxCell id="zkfFHV4jXpPFQw0GAbJ--20" value="+ virtual float value()" style="text;align=left;verticalAlign=top;spacingLeft=4;spacingRight=4;overflow=hidden;rotatable=0;points=[[0,0.5],[1,0.5]];portConstraint=eastwest;rounded=0;shadow=0;html=0;" parent="zkfFHV4jXpPFQw0GAbJ--17" vertex="1">
          <mxGeometry y="78" width="160" height="26" as="geometry" />
        </mxCell>
        <mxCell id="zkfFHV4jXpPFQw0GAbJ--21" value="+ virtual float value()" style="text;align=left;verticalAlign=top;spacingLeft=4;spacingRight=4;overflow=hidden;rotatable=0;points=[[0,0.5],[1,0.5]];portConstraint=eastwest;rounded=0;shadow=0;html=0;" parent="zkfFHV4jXpPFQw0GAbJ--17" vertex="1">
          <mxGeometry y="104" width="160" height="26" as="geometry" />
        </mxCell>
        <mxCell id="zkfFHV4jXpPFQw0GAbJ--22" value="+ ..." style="text;align=left;verticalAlign=top;spacingLeft=4;spacingRight=4;overflow=hidden;rotatable=0;points=[[0,0.5],[1,0.5]];portConstraint=eastwest;rounded=0;shadow=0;html=0;" parent="zkfFHV4jXpPFQw0GAbJ--17" vertex="1">
          <mxGeometry y="130" width="160" height="26" as="geometry" />
        </mxCell>
        <mxCell id="RZXt0brPKQYj8_NsuCjM-10" value="Table1" style="swimlane;fontStyle=0;align=center;verticalAlign=top;childLayout=stackLayout;horizontal=1;startSize=26;horizontalStack=0;resizeParent=1;resizeLast=0;collapsible=1;marginBottom=0;rounded=0;shadow=0;strokeWidth=1;" vertex="1" parent="WIyWlLk6GJQsqaUBKTNV-1">
          <mxGeometry x="480" y="360" width="180" height="318" as="geometry">
            <mxRectangle x="340" y="380" width="170" height="26" as="alternateBounds" />
          </mxGeometry>
        </mxCell>
        <mxCell id="RZXt0brPKQYj8_NsuCjM-11" value="+ Table1(FloatSeq* values,&#xa;TableAxis* axis, bool own_axis1)" style="text;align=left;verticalAlign=top;spacingLeft=4;spacingRight=4;overflow=hidden;rotatable=0;points=[[0,0.5],[1,0.5]];portConstraint=eastwest;" vertex="1" parent="RZXt0brPKQYj8_NsuCjM-10">
          <mxGeometry y="26" width="180" height="44" as="geometry" />
        </mxCell>
        <mxCell id="RZXt0brPKQYj8_NsuCjM-12" value="&amp;nbsp;+ virtual int order()" style="text;whiteSpace=wrap;html=1;" vertex="1" parent="RZXt0brPKQYj8_NsuCjM-10">
          <mxGeometry y="70" width="180" height="30" as="geometry" />
        </mxCell>
        <mxCell id="RZXt0brPKQYj8_NsuCjM-13" value="&amp;nbsp;+ virtual float value()" style="text;whiteSpace=wrap;html=1;" vertex="1" parent="RZXt0brPKQYj8_NsuCjM-10">
          <mxGeometry y="100" width="180" height="30" as="geometry" />
        </mxCell>
        <mxCell id="RZXt0brPKQYj8_NsuCjM-14" value="&amp;nbsp;+ virtual float findvalue()" style="text;whiteSpace=wrap;html=1;" vertex="1" parent="RZXt0brPKQYj8_NsuCjM-10">
          <mxGeometry y="130" width="180" height="30" as="geometry" />
        </mxCell>
        <mxCell id="RZXt0brPKQYj8_NsuCjM-23" value="&amp;nbsp;+ virtual TableAxis* axis1()" style="text;whiteSpace=wrap;html=1;" vertex="1" parent="RZXt0brPKQYj8_NsuCjM-10">
          <mxGeometry y="160" width="180" height="30" as="geometry" />
        </mxCell>
        <mxCell id="RZXt0brPKQYj8_NsuCjM-15" value="&amp;nbsp;+ ..." style="text;whiteSpace=wrap;html=1;" vertex="1" parent="RZXt0brPKQYj8_NsuCjM-10">
          <mxGeometry y="190" width="180" height="30" as="geometry" />
        </mxCell>
        <mxCell id="RZXt0brPKQYj8_NsuCjM-16" value="" style="line;strokeWidth=1;fillColor=none;align=left;verticalAlign=middle;spacingTop=-1;spacingLeft=3;spacingRight=3;rotatable=0;labelPosition=right;points=[];portConstraint=eastwest;" vertex="1" parent="RZXt0brPKQYj8_NsuCjM-10">
          <mxGeometry y="220" width="180" height="8" as="geometry" />
        </mxCell>
        <mxCell id="RZXt0brPKQYj8_NsuCjM-21" value="&lt;span style=&quot;color: rgb(0, 0, 0); font-family: Helvetica; font-size: 12px; font-style: normal; font-variant-ligatures: normal; font-variant-caps: normal; font-weight: 400; letter-spacing: normal; orphans: 2; text-align: left; text-indent: 0px; text-transform: none; widows: 2; word-spacing: 0px; -webkit-text-stroke-width: 0px; background-color: rgb(248, 249, 250); text-decoration-thickness: initial; text-decoration-style: initial; text-decoration-color: initial; float: none; display: inline !important;&quot;&gt;&amp;nbsp;- FloatSeq* values_&lt;/span&gt;" style="text;whiteSpace=wrap;html=1;" vertex="1" parent="RZXt0brPKQYj8_NsuCjM-10">
          <mxGeometry y="228" width="180" height="30" as="geometry" />
        </mxCell>
        <mxCell id="RZXt0brPKQYj8_NsuCjM-17" value="&amp;nbsp;- TableAxis* axis1_" style="text;whiteSpace=wrap;html=1;" vertex="1" parent="RZXt0brPKQYj8_NsuCjM-10">
          <mxGeometry y="258" width="180" height="30" as="geometry" />
        </mxCell>
        <mxCell id="RZXt0brPKQYj8_NsuCjM-22" value="&amp;nbsp;- bool own_axis1_" style="text;whiteSpace=wrap;html=1;" vertex="1" parent="RZXt0brPKQYj8_NsuCjM-10">
          <mxGeometry y="288" width="180" height="30" as="geometry" />
        </mxCell>
        <mxCell id="RZXt0brPKQYj8_NsuCjM-19" value="" style="endArrow=block;endSize=10;endFill=0;shadow=0;strokeWidth=1;rounded=0;edgeStyle=elbowEdgeStyle;elbow=vertical;entryX=0.5;entryY=1;entryDx=0;entryDy=0;exitX=0.5;exitY=0;exitDx=0;exitDy=0;" edge="1" parent="WIyWlLk6GJQsqaUBKTNV-1" source="RZXt0brPKQYj8_NsuCjM-10" target="zkfFHV4jXpPFQw0GAbJ--17">
          <mxGeometry width="160" relative="1" as="geometry">
            <mxPoint x="370" y="370" as="sourcePoint" />
            <mxPoint x="490" y="220" as="targetPoint" />
          </mxGeometry>
        </mxCell>
        <mxCell id="RZXt0brPKQYj8_NsuCjM-24" value="Table2" style="swimlane;fontStyle=0;align=center;verticalAlign=top;childLayout=stackLayout;horizontal=1;startSize=26;horizontalStack=0;resizeParent=1;resizeLast=0;collapsible=1;marginBottom=0;rounded=0;shadow=0;strokeWidth=1;" vertex="1" parent="WIyWlLk6GJQsqaUBKTNV-1">
          <mxGeometry x="690" y="360" width="200" height="418" as="geometry">
            <mxRectangle x="340" y="380" width="170" height="26" as="alternateBounds" />
          </mxGeometry>
        </mxCell>
        <mxCell id="RZXt0brPKQYj8_NsuCjM-25" value="+ Table1(FloatSeq* values,&#xa;TableAxis* axis1, bool own_axis1,&#xa;TableAxis* axis2, bool own_axis2)" style="text;align=left;verticalAlign=top;spacingLeft=4;spacingRight=4;overflow=hidden;rotatable=0;points=[[0,0.5],[1,0.5]];portConstraint=eastwest;" vertex="1" parent="RZXt0brPKQYj8_NsuCjM-24">
          <mxGeometry y="26" width="200" height="54" as="geometry" />
        </mxCell>
        <mxCell id="RZXt0brPKQYj8_NsuCjM-26" value="&amp;nbsp;+ virtual int order()" style="text;whiteSpace=wrap;html=1;" vertex="1" parent="RZXt0brPKQYj8_NsuCjM-24">
          <mxGeometry y="80" width="200" height="30" as="geometry" />
        </mxCell>
        <mxCell id="RZXt0brPKQYj8_NsuCjM-27" value="&amp;nbsp;+ virtual float value()" style="text;whiteSpace=wrap;html=1;" vertex="1" parent="RZXt0brPKQYj8_NsuCjM-24">
          <mxGeometry y="110" width="200" height="30" as="geometry" />
        </mxCell>
        <mxCell id="RZXt0brPKQYj8_NsuCjM-28" value="&amp;nbsp;+ virtual float findvalue()" style="text;whiteSpace=wrap;html=1;" vertex="1" parent="RZXt0brPKQYj8_NsuCjM-24">
          <mxGeometry y="140" width="200" height="30" as="geometry" />
        </mxCell>
        <mxCell id="RZXt0brPKQYj8_NsuCjM-29" value="&amp;nbsp;+ virtual TableAxis* axis1()" style="text;whiteSpace=wrap;html=1;" vertex="1" parent="RZXt0brPKQYj8_NsuCjM-24">
          <mxGeometry y="170" width="200" height="30" as="geometry" />
        </mxCell>
        <mxCell id="RZXt0brPKQYj8_NsuCjM-35" value="&amp;nbsp;+ virtual TableAxis* axis2()" style="text;whiteSpace=wrap;html=1;" vertex="1" parent="RZXt0brPKQYj8_NsuCjM-24">
          <mxGeometry y="200" width="200" height="30" as="geometry" />
        </mxCell>
        <mxCell id="RZXt0brPKQYj8_NsuCjM-30" value="&amp;nbsp;+ ..." style="text;whiteSpace=wrap;html=1;" vertex="1" parent="RZXt0brPKQYj8_NsuCjM-24">
          <mxGeometry y="230" width="200" height="30" as="geometry" />
        </mxCell>
        <mxCell id="RZXt0brPKQYj8_NsuCjM-31" value="" style="line;strokeWidth=1;fillColor=none;align=left;verticalAlign=middle;spacingTop=-1;spacingLeft=3;spacingRight=3;rotatable=0;labelPosition=right;points=[];portConstraint=eastwest;" vertex="1" parent="RZXt0brPKQYj8_NsuCjM-24">
          <mxGeometry y="260" width="200" height="8" as="geometry" />
        </mxCell>
        <mxCell id="RZXt0brPKQYj8_NsuCjM-32" value="&lt;span style=&quot;color: rgb(0, 0, 0); font-family: Helvetica; font-size: 12px; font-style: normal; font-variant-ligatures: normal; font-variant-caps: normal; font-weight: 400; letter-spacing: normal; orphans: 2; text-align: left; text-indent: 0px; text-transform: none; widows: 2; word-spacing: 0px; -webkit-text-stroke-width: 0px; background-color: rgb(248, 249, 250); text-decoration-thickness: initial; text-decoration-style: initial; text-decoration-color: initial; float: none; display: inline !important;&quot;&gt;&amp;nbsp;- FloatSeq* values_&lt;/span&gt;" style="text;whiteSpace=wrap;html=1;" vertex="1" parent="RZXt0brPKQYj8_NsuCjM-24">
          <mxGeometry y="268" width="200" height="30" as="geometry" />
        </mxCell>
        <mxCell id="RZXt0brPKQYj8_NsuCjM-33" value="&amp;nbsp;- TableAxis* axis1_" style="text;whiteSpace=wrap;html=1;" vertex="1" parent="RZXt0brPKQYj8_NsuCjM-24">
          <mxGeometry y="298" width="200" height="30" as="geometry" />
        </mxCell>
        <mxCell id="RZXt0brPKQYj8_NsuCjM-36" value="&amp;nbsp;- TableAxis* axis2_" style="text;whiteSpace=wrap;html=1;" vertex="1" parent="RZXt0brPKQYj8_NsuCjM-24">
          <mxGeometry y="328" width="200" height="30" as="geometry" />
        </mxCell>
        <mxCell id="RZXt0brPKQYj8_NsuCjM-34" value="&amp;nbsp;- bool own_axis1_" style="text;whiteSpace=wrap;html=1;" vertex="1" parent="RZXt0brPKQYj8_NsuCjM-24">
          <mxGeometry y="358" width="200" height="30" as="geometry" />
        </mxCell>
        <mxCell id="RZXt0brPKQYj8_NsuCjM-37" value="&amp;nbsp;- bool own_axis2_" style="text;whiteSpace=wrap;html=1;" vertex="1" parent="RZXt0brPKQYj8_NsuCjM-24">
          <mxGeometry y="388" width="200" height="30" as="geometry" />
        </mxCell>
        <mxCell id="RZXt0brPKQYj8_NsuCjM-39" value="" style="endArrow=block;endSize=10;endFill=0;shadow=0;strokeWidth=1;rounded=0;edgeStyle=elbowEdgeStyle;elbow=vertical;entryX=0.5;entryY=1;entryDx=0;entryDy=0;" edge="1" parent="WIyWlLk6GJQsqaUBKTNV-1" source="RZXt0brPKQYj8_NsuCjM-24" target="zkfFHV4jXpPFQw0GAbJ--17">
          <mxGeometry width="160" relative="1" as="geometry">
            <mxPoint x="580" y="370" as="sourcePoint" />
            <mxPoint x="490" y="220" as="targetPoint" />
          </mxGeometry>
        </mxCell>
        <mxCell id="RZXt0brPKQYj8_NsuCjM-40" value="Table3" style="swimlane;fontStyle=0;align=center;verticalAlign=top;childLayout=stackLayout;horizontal=1;startSize=26;horizontalStack=0;resizeParent=1;resizeLast=0;collapsible=1;marginBottom=0;rounded=0;shadow=0;strokeWidth=1;" vertex="1" parent="WIyWlLk6GJQsqaUBKTNV-1">
          <mxGeometry x="930" y="360" width="200" height="518" as="geometry">
            <mxRectangle x="340" y="380" width="170" height="26" as="alternateBounds" />
          </mxGeometry>
        </mxCell>
        <mxCell id="RZXt0brPKQYj8_NsuCjM-41" value="+ Table1(FloatSeq* values,&#xa;TableAxis* axis1, bool own_axis1,&#xa;TableAxis* axis2, bool own_axis2,&#xa;TableAxis* axis3, bool own_axis3)" style="text;align=left;verticalAlign=top;spacingLeft=4;spacingRight=4;overflow=hidden;rotatable=0;points=[[0,0.5],[1,0.5]];portConstraint=eastwest;" vertex="1" parent="RZXt0brPKQYj8_NsuCjM-40">
          <mxGeometry y="26" width="200" height="64" as="geometry" />
        </mxCell>
        <mxCell id="RZXt0brPKQYj8_NsuCjM-42" value="&amp;nbsp;+ virtual int order()" style="text;whiteSpace=wrap;html=1;" vertex="1" parent="RZXt0brPKQYj8_NsuCjM-40">
          <mxGeometry y="90" width="200" height="30" as="geometry" />
        </mxCell>
        <mxCell id="RZXt0brPKQYj8_NsuCjM-43" value="&amp;nbsp;+ virtual float value()" style="text;whiteSpace=wrap;html=1;" vertex="1" parent="RZXt0brPKQYj8_NsuCjM-40">
          <mxGeometry y="120" width="200" height="30" as="geometry" />
        </mxCell>
        <mxCell id="RZXt0brPKQYj8_NsuCjM-44" value="&amp;nbsp;+ virtual float findvalue()" style="text;whiteSpace=wrap;html=1;" vertex="1" parent="RZXt0brPKQYj8_NsuCjM-40">
          <mxGeometry y="150" width="200" height="30" as="geometry" />
        </mxCell>
        <mxCell id="RZXt0brPKQYj8_NsuCjM-45" value="&amp;nbsp;+ virtual TableAxis* axis1()" style="text;whiteSpace=wrap;html=1;" vertex="1" parent="RZXt0brPKQYj8_NsuCjM-40">
          <mxGeometry y="180" width="200" height="30" as="geometry" />
        </mxCell>
        <mxCell id="RZXt0brPKQYj8_NsuCjM-46" value="&amp;nbsp;+ virtual TableAxis* axis2()" style="text;whiteSpace=wrap;html=1;" vertex="1" parent="RZXt0brPKQYj8_NsuCjM-40">
          <mxGeometry y="210" width="200" height="30" as="geometry" />
        </mxCell>
        <mxCell id="RZXt0brPKQYj8_NsuCjM-54" value="&amp;nbsp;+ virtual TableAxis* axis3()" style="text;whiteSpace=wrap;html=1;" vertex="1" parent="RZXt0brPKQYj8_NsuCjM-40">
          <mxGeometry y="240" width="200" height="30" as="geometry" />
        </mxCell>
        <mxCell id="RZXt0brPKQYj8_NsuCjM-47" value="&amp;nbsp;+ ..." style="text;whiteSpace=wrap;html=1;" vertex="1" parent="RZXt0brPKQYj8_NsuCjM-40">
          <mxGeometry y="270" width="200" height="30" as="geometry" />
        </mxCell>
        <mxCell id="RZXt0brPKQYj8_NsuCjM-48" value="" style="line;strokeWidth=1;fillColor=none;align=left;verticalAlign=middle;spacingTop=-1;spacingLeft=3;spacingRight=3;rotatable=0;labelPosition=right;points=[];portConstraint=eastwest;" vertex="1" parent="RZXt0brPKQYj8_NsuCjM-40">
          <mxGeometry y="300" width="200" height="8" as="geometry" />
        </mxCell>
        <mxCell id="RZXt0brPKQYj8_NsuCjM-49" value="&lt;span style=&quot;color: rgb(0, 0, 0); font-family: Helvetica; font-size: 12px; font-style: normal; font-variant-ligatures: normal; font-variant-caps: normal; font-weight: 400; letter-spacing: normal; orphans: 2; text-align: left; text-indent: 0px; text-transform: none; widows: 2; word-spacing: 0px; -webkit-text-stroke-width: 0px; background-color: rgb(248, 249, 250); text-decoration-thickness: initial; text-decoration-style: initial; text-decoration-color: initial; float: none; display: inline !important;&quot;&gt;&amp;nbsp;- FloatSeq* values_&lt;/span&gt;" style="text;whiteSpace=wrap;html=1;" vertex="1" parent="RZXt0brPKQYj8_NsuCjM-40">
          <mxGeometry y="308" width="200" height="30" as="geometry" />
        </mxCell>
        <mxCell id="RZXt0brPKQYj8_NsuCjM-50" value="&amp;nbsp;- TableAxis* axis1_" style="text;whiteSpace=wrap;html=1;" vertex="1" parent="RZXt0brPKQYj8_NsuCjM-40">
          <mxGeometry y="338" width="200" height="30" as="geometry" />
        </mxCell>
        <mxCell id="RZXt0brPKQYj8_NsuCjM-51" value="&amp;nbsp;- TableAxis* axis2_" style="text;whiteSpace=wrap;html=1;" vertex="1" parent="RZXt0brPKQYj8_NsuCjM-40">
          <mxGeometry y="368" width="200" height="30" as="geometry" />
        </mxCell>
        <mxCell id="RZXt0brPKQYj8_NsuCjM-55" value="&amp;nbsp;- TableAxis* axis3_" style="text;whiteSpace=wrap;html=1;" vertex="1" parent="RZXt0brPKQYj8_NsuCjM-40">
          <mxGeometry y="398" width="200" height="30" as="geometry" />
        </mxCell>
        <mxCell id="RZXt0brPKQYj8_NsuCjM-52" value="&amp;nbsp;- bool own_axis1_" style="text;whiteSpace=wrap;html=1;" vertex="1" parent="RZXt0brPKQYj8_NsuCjM-40">
          <mxGeometry y="428" width="200" height="30" as="geometry" />
        </mxCell>
        <mxCell id="RZXt0brPKQYj8_NsuCjM-53" value="&amp;nbsp;- bool own_axis2_" style="text;whiteSpace=wrap;html=1;" vertex="1" parent="RZXt0brPKQYj8_NsuCjM-40">
          <mxGeometry y="458" width="200" height="30" as="geometry" />
        </mxCell>
        <mxCell id="RZXt0brPKQYj8_NsuCjM-56" value="&amp;nbsp;- bool own_axis3_" style="text;whiteSpace=wrap;html=1;" vertex="1" parent="RZXt0brPKQYj8_NsuCjM-40">
          <mxGeometry y="488" width="200" height="30" as="geometry" />
        </mxCell>
        <mxCell id="RZXt0brPKQYj8_NsuCjM-57" value="" style="endArrow=block;endSize=10;endFill=0;shadow=0;strokeWidth=1;rounded=0;edgeStyle=elbowEdgeStyle;elbow=vertical;entryX=0.5;entryY=1;entryDx=0;entryDy=0;" edge="1" parent="WIyWlLk6GJQsqaUBKTNV-1">
          <mxGeometry width="160" relative="1" as="geometry">
            <mxPoint x="790" y="360" as="sourcePoint" />
            <mxPoint x="480" y="210" as="targetPoint" />
          </mxGeometry>
        </mxCell>
        <mxCell id="RZXt0brPKQYj8_NsuCjM-58" value="" style="endArrow=block;endSize=10;endFill=0;shadow=0;strokeWidth=1;rounded=0;edgeStyle=elbowEdgeStyle;elbow=vertical;exitX=0.5;exitY=0;exitDx=0;exitDy=0;" edge="1" parent="WIyWlLk6GJQsqaUBKTNV-1" source="RZXt0brPKQYj8_NsuCjM-40">
          <mxGeometry width="160" relative="1" as="geometry">
            <mxPoint x="800" y="370" as="sourcePoint" />
            <mxPoint x="480" y="210" as="targetPoint" />
          </mxGeometry>
        </mxCell>
        <mxCell id="RZXt0brPKQYj8_NsuCjM-61" value="Use" style="endArrow=open;endSize=12;dashed=1;html=1;rounded=0;" edge="1" parent="WIyWlLk6GJQsqaUBKTNV-1">
          <mxGeometry width="160" relative="1" as="geometry">
            <mxPoint x="260" y="140" as="sourcePoint" />
            <mxPoint x="400" y="140" as="targetPoint" />
          </mxGeometry>
        </mxCell>
      </root>
    </mxGraphModel>
  </diagram>
</mxfile>
